<?xml version="1.0" encoding="UTF-8" standalone="no"?>
<svg
   xmlns:dc="http://purl.org/dc/elements/1.1/"
   xmlns:cc="http://creativecommons.org/ns#"
   xmlns:rdf="http://www.w3.org/1999/02/22-rdf-syntax-ns#"
   xmlns:svg="http://www.w3.org/2000/svg"
   xmlns="http://www.w3.org/2000/svg"
   xmlns:sodipodi="http://sodipodi.sourceforge.net/DTD/sodipodi-0.dtd"
   xmlns:inkscape="http://www.inkscape.org/namespaces/inkscape"
   version="1.1"
   id="Layer_1"
   x="0px"
   y="0px"
   viewBox="0 0 512 512"
   style="enable-background:new 0 0 512 512;"
   xml:space="preserve"
   sodipodi:docname="brightness.svg"
   inkscape:version="1.0.1 (3bc2e813f5, 2020-09-07)"
   inkscape:export-filename="/media/iosef/9C33-6BBD/prj/proyectos_2020/kontrast/img/brightness.png"
   inkscape:export-xdpi="4.5"
   inkscape:export-ydpi="4.5"><metadata
   id="metadata91"><rdf:RDF><cc:Work
       rdf:about=""><dc:format>image/svg+xml</dc:format><dc:type
         rdf:resource="http://purl.org/dc/dcmitype/StillImage" /></cc:Work></rdf:RDF></metadata><defs
   id="defs89">
	
</defs><sodipodi:namedview
   pagecolor="#ffffff"
   bordercolor="#666666"
   borderopacity="1"
   objecttolerance="10"
   gridtolerance="10"
   guidetolerance="10"
   inkscape:pageopacity="0"
   inkscape:pageshadow="2"
   inkscape:window-width="1366"
   inkscape:window-height="703"
   id="namedview87"
   showgrid="false"
   inkscape:zoom="0.74439562"
   inkscape:cx="210.09746"
   inkscape:cy="223.84691"
   inkscape:window-x="0"
   inkscape:window-y="0"
   inkscape:window-maximized="1"
   inkscape:current-layer="Layer_1" />







<g
   id="g992"
   transform="matrix(0.99896219,0,0,0.99896219,0.68451733,1.2044963)"><g
     id="g6">
	<g
   id="g4">
		<path
   d="m 256,0 c -8.284,0 -15,6.716 -15,15 v 32 c 0,8.284 6.716,15 15,15 8.284,0 15,-6.716 15,-15 V 15 C 271,6.716 264.284,0 256,0 Z"
   id="path2" />
	</g>
</g><g
     id="g12">
	<g
   id="g10">
		<path
   d="m 256,450 c -8.284,0 -15,6.716 -15,15 v 32 c 0,8.284 6.716,15 15,15 8.284,0 15,-6.716 15,-15 v -32 c 0,-8.284 -6.716,-15 -15,-15 z"
   id="path8" />
	</g>
</g><g
     id="g18">
	<g
   id="g16">
		<path
   d="M 119.529,98.315 96.901,75.687 c -5.858,-5.857 -15.356,-5.857 -21.213,0 -5.858,5.858 -5.858,15.356 0,21.213 l 22.628,22.628 c 2.928,2.929 6.767,4.394 10.606,4.394 3.839,0 7.678,-1.465 10.607,-4.394 5.858,-5.858 5.858,-15.356 0,-21.213 z"
   id="path14" />
	</g>
</g><g
     id="g24">
	<g
   id="g22">
		<path
   d="m 436.313,415.099 -22.628,-22.628 c -5.858,-5.857 -15.356,-5.857 -21.213,0 -5.858,5.858 -5.858,15.356 0,21.213 l 22.628,22.628 c 2.928,2.929 6.767,4.394 10.606,4.394 3.839,0 7.678,-1.465 10.607,-4.394 5.858,-5.858 5.858,-15.356 0,-21.213 z"
   id="path20" />
	</g>
</g><g
     id="g30">
	<g
   id="g28">
		<path
   d="M 47,241 H 15 c -8.284,0 -15,6.716 -15,15 0,8.284 6.716,15 15,15 h 32 c 8.284,0 15,-6.716 15,-15 0,-8.284 -6.716,-15 -15,-15 z"
   id="path26" />
	</g>
</g><g
     id="g36">
	<g
   id="g34">
		<path
   d="m 497,241 h -32 c -8.284,0 -15,6.716 -15,15 0,8.284 6.716,15 15,15 h 32 c 8.284,0 15,-6.716 15,-15 0,-8.284 -6.716,-15 -15,-15 z"
   id="path32" />
	</g>
</g><g
     id="g42">
	<g
   id="g40">
		<path
   d="m 119.529,392.471 c -5.858,-5.857 -15.356,-5.857 -21.213,0 l -22.628,22.628 c -5.858,5.858 -5.858,15.356 0,21.213 2.928,2.929 6.767,4.394 10.606,4.394 3.839,0 7.678,-1.465 10.606,-4.393 l 22.629,-22.629 c 5.858,-5.858 5.858,-15.356 0,-21.213 z"
   id="path38" />
	</g>
</g><g
     id="g48">
	<g
   id="g46">
		<path
   d="m 436.313,75.688 c -5.858,-5.857 -15.356,-5.857 -21.213,0 l -22.628,22.627 c -5.858,5.858 -5.858,15.356 0,21.213 2.928,2.929 6.767,4.394 10.606,4.394 3.839,0 7.678,-1.465 10.607,-4.393 l 22.628,-22.628 c 5.858,-5.858 5.858,-15.356 0,-21.213 z"
   id="path44" />
	</g>
</g></g>

<g
   id="g56">
</g>
<g
   id="g58">
</g>
<g
   id="g60">
</g>
<g
   id="g62">
</g>
<g
   id="g64">
</g>
<g
   id="g66">
</g>
<g
   id="g68">
</g>
<g
   id="g70">
</g>
<g
   id="g72">
</g>
<g
   id="g74">
</g>
<g
   id="g76">
</g>
<g
   id="g78">
</g>
<g
   id="g80">
</g>
<g
   id="g82">
</g>
<g
   id="g84">
</g>
<ellipse
   style="fill:none;stroke:#000000;stroke-width:20.2184;stroke-miterlimit:4;stroke-dasharray:none"
   id="path97"
   cx="259.33994"
   cy="255.63182"
   rx="197.29706"
   ry="196.46426" /></svg>
